<?xml version="1.0" encoding="utf-8"?>
<!-- Generator: Adobe Illustrator 16.0.0, SVG Export Plug-In . SVG Version: 6.00 Build 0)  -->
<!DOCTYPE svg PUBLIC "-//W3C//DTD SVG 1.1//EN" "http://www.w3.org/Graphics/SVG/1.1/DTD/svg11.dtd">
<svg version="1.1" id="Layer_1" xmlns="http://www.w3.org/2000/svg" xmlns:xlink="http://www.w3.org/1999/xlink" x="0px" y="0px"
	 width="128px" height="128px" viewBox="0 0 128 128" enable-background="new 0 0 128 128" xml:space="preserve">
<g>
	<defs>
		<rect id="SVGID_1_" x="-1697.683" y="-74" width="1557.206" height="516.465"/>
	</defs>
	<clipPath id="SVGID_2_">
		<use xlink:href="#SVGID_1_"  overflow="visible"/>
	</clipPath>
	<path opacity="0.15" clip-path="url(#SVGID_2_)" fill="#59595C" d="M932.418,38.011L794.531,26.788
		c-4.004-12.993-16.1-22.444-30.411-22.444c-3.608,0-7.064,0.629-10.296,1.734L583.028-159.858c0.912-2.964,1.408-6.113,1.408-9.375
		c0-17.582-14.247-31.83-31.824-31.83c-17.572,0-31.82,14.248-31.82,31.83c0,0.769,0.062,1.527,0.115,2.281L311.548-40.2
		c-3.239-1.115-6.701-1.745-10.316-1.745c-17.577,0-31.826,14.247-31.826,31.829c0,2.281,0.25,4.501,0.707,6.645L88.176,192.105
		c-3.869-1.672-8.127-2.606-12.607-2.606c-12.565,0-23.398,7.305-28.571,17.886l-166.954-49.039
		c-4.25-12.581-16.121-21.65-30.133-21.65c-7.511,0-14.4,2.616-19.841,6.969l-187.66-55.121
		c-4.556-12.002-16.13-20.556-29.729-20.556c-15.808,0-28.881,11.542-31.361,26.646l-178.523,110.403
		c-4.831-2.958-10.491-4.693-16.569-4.693c-17.577,0-31.82,14.248-31.82,31.825c0,1.564,0.151,3.092,0.369,4.594l-175.44,121.43
		c-4.484-2.416-9.613-3.789-15.063-3.789c-11.229,0-21.077,5.833-26.74,14.614l-169.472-16.942
		c-3.593-13.639-15.972-23.711-30.735-23.711c-11.039,0-20.757,5.628-26.465,14.161l-179.037-45.907
		c-4.615-11.89-16.131-20.329-29.647-20.329c-12.158,0-22.715,6.824-28.072,16.85l-179.775,13.153
		c-5.555-9.292-15.686-15.538-27.302-15.538c-2.179,0-4.307,0.222-6.364,0.641l-189.351-203.554
		c1.196-3.346,1.881-6.927,1.881-10.686c0-17.583-14.247-31.829-31.822-31.829c-17.578,0-31.822,14.246-31.822,31.829
		c0,2.647,0.359,5.209,0.969,7.665L-1980.732,315.3c-2.954-0.903-6.088-1.399-9.34-1.399c-9.281,0-17.607,3.995-23.422,10.335
		l-168.76-42.19c-3.793-13.334-16.032-23.11-30.585-23.11c-17.091,0-30.996,13.483-31.749,30.395l-59.47,44.849l17.42,23.096
		l54.6-41.179c5.34,4.053,11.977,6.489,19.199,6.489c10.131,0,19.135-4.75,24.961-12.121l166.625,41.653
		c2.96,14.517,15.794,25.434,31.181,25.434c17.573,0,31.822-14.247,31.822-31.823c0-3.563-0.613-6.976-1.693-10.176l189.818-228.75
		c3.568,1.384,7.437,2.174,11.497,2.174c3.092,0,6.071-0.465,8.896-1.285l187.759,201.845c-1.797,3.984-2.821,8.393-2.821,13.05
		c0,17.577,14.249,31.819,31.822,31.819c13.109,0,24.354-7.925,29.232-19.244l177.401-12.983
		c5.195,10.516,15.994,17.764,28.515,17.764c11.08,0,20.829-5.669,26.525-14.259l178.927,45.881
		c4.578,11.95,16.129,20.453,29.696,20.453c9.908,0,18.754-4.527,24.591-11.626l172.728,17.392
		c4.627,11.857,16.133,20.271,29.629,20.271c17.574,0,31.822-14.247,31.822-31.819c0-1.439-0.129-2.849-0.315-4.232l175.707-121.641
		c4.408,2.312,9.417,3.634,14.74,3.634c17.577,0,31.825-14.247,31.825-31.824c0-0.837-0.063-1.657-0.125-2.478l172.809-106.867
		c5.709,5.451,13.427,8.817,21.945,8.817c10.949,0,20.6-5.528,26.326-13.948l179.177,52.633c0.941,16.73,14.76,30.018,31.728,30.018
		c10.587,0,19.938-5.188,25.725-13.143l172.856,50.774c5.602,9.091,15.617,15.173,27.077,15.173
		c17.577,0,31.824-14.248,31.824-31.82c0-2.281-0.25-4.501-0.706-6.644L288.631,19.102c3.865,1.667,8.122,2.602,12.601,2.602
		c17.572,0,31.819-14.247,31.819-31.819c0-2.969-0.436-5.833-1.198-8.559l204.035-123.524c4.864,3.015,10.581,4.785,16.725,4.785
		c3.586,0,7.021-0.619,10.238-1.714L733.69,26.85c-0.903,2.947-1.394,6.076-1.394,9.318c0,17.577,14.248,31.824,31.824,31.824
		c10.343,0,19.502-4.955,25.313-12.596l140.638,11.45L932.418,38.011z"/>
	<g clip-path="url(#SVGID_2_)">
		<polygon fill="#D6D6D2" points="-530.721,39.373 -177.56,59.401 24.409,368.604 -464.974,688.264 -662.584,385.733 		"/>
		<g>
			<defs>
				
					<rect id="SVGID_3_" x="-703.645" y="-39.878" transform="matrix(-0.8372 0.5469 -0.5469 -0.8372 -557.994 716.619)" width="635.989" height="630.283"/>
			</defs>
			<clipPath id="SVGID_4_">
				<use xlink:href="#SVGID_3_"  overflow="visible"/>
			</clipPath>
			<path clip-path="url(#SVGID_4_)" fill="#F3F3F1" d="M-21.396,324.46c0,0,4.555,6.972-3.736,6.168l-215.201-20.863
				c0,0-8.29-0.802-5.973-8.804l62.019-214.332c0,0,2.314-8.005,6.87-1.031L-21.396,324.46z M-430.136,633.035
				c0,0-6.974,4.555-4.766-3.476l77.722-282.756c0,0,2.206-8.032,10.498-7.229l310.237,30.087c0,0,8.29,0.803,1.316,5.357
				L-430.136,633.035z M-642.687,390.213c0,0-4.556-6.975,3.677-5.712l212.553,32.479c0,0,8.234,1.258,6.023,9.29l-56.65,206.066
				c0,0-2.206,8.031-6.762,1.057L-642.687,390.213z M-621.279,293.828c0,0,2.865-7.821,7.42-0.848l35.333,54.092
				c0,0,4.556,6.976-3.679,5.718l-49.228-7.522c0,0-8.236-1.26-5.369-9.078L-621.279,293.828z M-535.125,58.63
				c0,0,2.862-7.821,11.177-7.3l25.718,1.613c0,0,8.312,0.523,1.338,5.078l-42.982,28.075c0,0-6.974,4.556-4.11-3.267
				L-535.125,58.63z M-277.706,73.409c0,0-4.554-6.974,3.759-6.454l44.536,2.78c0,0,8.315,0.522,5.999,8.522L-236.8,124.49
				c0,0-2.313,8.002-6.871,1.024L-277.706,73.409z M-169.3,34.879l0.193-0.688c0,0,0.193-0.688-8.12-1.206l-123.963-7.737
				c0,0-8.312-0.519-12.867-7.492l-31.688-48.512c0,0-4.556-6.976-11.531-2.418l-69.762,45.568c0,0-6.977,4.557-15.287,4.034
				l-108.867-6.806c0,0-8.313-0.519-11.179,7.302l-37.518,102.423c0,0-2.863,7.819-9.839,12.376l-69.753,45.562
				c0,0-6.974,4.555-2.417,11.529l31.682,48.503c0,0,4.554,6.973,1.688,14.795l-42.558,116.173c0,0-2.865,7.822-2.212,7.921
				c0,0-0.653-0.099,0,0c0,0,0.652,0.1,0.453,3.028c-0.203,2.929,1.138,8.963,4.593,14.252l193.34,295.994
				c8.463,12.957,25.925,16.63,38.893,8.158L29.405,380.566c12.968-8.47,16.611-25.928,8.147-38.885L-155.789,45.688
				C-159.154,40.534-163.944,36.92-169.3,34.879"/>
		</g>
	</g>
</g>
<g>
	<defs>
		<rect id="SVGID_5_" x="-2" y="-320" width="779.138" height="258.41"/>
	</defs>
	<clipPath id="SVGID_6_">
		<use xlink:href="#SVGID_5_"  overflow="visible"/>
	</clipPath>
</g>
<g>
	<defs>
		<rect id="SVGID_9_" x="-1698.669" y="-673.248" width="1572.977" height="521.696"/>
	</defs>
	<clipPath id="SVGID_8_">
		<use xlink:href="#SVGID_9_"  overflow="visible"/>
	</clipPath>
</g>
<rect y="0.062" fill="#58595B" width="127.938" height="127.938"/>
<g>
	<polygon fill="#D6D6D2" points="65.152,21.686 107.316,52.871 107.229,107.627 20.566,107.49 20.651,53.916 	"/>
	<g>
		<defs>
			
				<rect id="SVGID_19_" x="16.823" y="16.002" transform="matrix(-1 -0.0016 0.0016 -1 127.8385 125.5525)" width="94.292" height="93.446"/>
		</defs>
		<clipPath id="SVGID_10_">
			<use xlink:href="#SVGID_19_"  overflow="visible"/>
		</clipPath>
		<path clip-path="url(#SVGID_10_)" fill="#F3F3F1" d="M105.138,98.432c0,0-0.002,1.233-0.965,0.461L79.184,78.814
			c0,0-0.963-0.772-0.025-1.577l25.11-21.534c0,0,0.938-0.807,0.936,0.429L105.138,98.432z M29.375,103.474
			c0,0-1.234-0.002-0.309-0.817l32.619-28.745c0,0,0.927-0.817,1.89-0.044l36.023,28.947c0,0,0.963,0.771-0.271,0.77L29.375,103.474
			z M22.754,56.089c0,0,0.001-1.234,0.92-0.409l23.716,21.303c0,0,0.919,0.824-0.008,1.641L23.61,99.571
			c0,0-0.927,0.816-0.925-0.419L22.754,56.089z M33.242,45.876c0,0,0.992-0.736,0.989,0.499l-0.015,9.579
			c0,0-0.002,1.235-0.921,0.41l-5.493-4.935c0,0-0.918-0.825,0.072-1.562L33.242,45.876z M63.042,23.715c0,0,0.99-0.736,1.979,0.003
			l3.058,2.29c0,0,0.988,0.74-0.247,0.738l-7.612-0.01c0,0-1.235-0.004-0.244-0.741L63.042,23.715z M93.76,46.47
			c0,0,0.001-1.234,0.99-0.495l5.296,3.965c0,0,0.989,0.739,0.052,1.544l-5.417,4.645c0,0-0.938,0.805-0.936-0.431L93.76,46.47z
			 M110.333,50.503l0.08-0.069c0,0,0.08-0.069-0.909-0.81L94.762,38.588c0,0-0.988-0.74-0.987-1.974l0.014-8.592
			c0,0,0.002-1.233-1.233-1.235l-12.354-0.021c0,0-1.235-0.002-2.223-0.742l-12.946-9.691c0,0-0.989-0.741-1.98-0.004L50.076,25.98
			c0,0-0.991,0.737-2.226,0.734l-12.353-0.02c0,0-1.235-0.002-1.237,1.233l-0.014,8.589c0,0-0.001,1.235-0.992,1.973l-14.72,10.946
			c0,0-0.991,0.735-0.918,0.802c0,0-0.072-0.066,0,0c0,0,0.074,0.064-0.189,0.412c-0.263,0.347-0.588,1.205-0.589,2.141
			l-0.083,52.417c-0.003,2.294,1.864,4.169,4.16,4.173l85.962,0.137c2.297,0.004,4.167-1.864,4.171-4.159l0.083-52.418
			C111.132,52.027,110.832,51.191,110.333,50.503"/>
		<path clip-path="url(#SVGID_10_)" fill="#9B5C8E" d="M33.69,56.082c0,0-0.002,1.183,0.899,1.947l17.888,15.185
			c0,0,0.901,0.766,1.848,0.058l7.572-5.66c0,0,0.947-0.708,1.918-0.035l8.289,5.749c0,0,0.971,0.673,1.881-0.081l19.053-15.78
			c0,0,0.911-0.754,0.914-1.936l0.076-28.018c0,0,0.003-1.181-1.179-1.187L34.939,26.1c0,0-1.182-0.005-1.184,1.178L33.69,56.082z"
			/>
		<path clip-path="url(#SVGID_10_)" fill="#FFFFFF" d="M72.144,57.838c-0.676,0-1.251,0.234-1.725,0.707
			c-0.474,0.472-0.711,1.047-0.712,1.724c-0.001,0.676,0.235,1.257,0.707,1.741c0.473,0.484,1.046,0.729,1.722,0.729
			s1.251-0.241,1.725-0.725c0.474-0.483,0.711-1.063,0.712-1.739c0.001-0.677-0.234-1.251-0.707-1.725
			C73.395,58.076,72.82,57.84,72.144,57.838"/>
		<path clip-path="url(#SVGID_10_)" fill="#FFFFFF" d="M57.712,57.814c-0.675-0.001-1.251,0.235-1.724,0.708
			c-0.474,0.472-0.712,1.046-0.713,1.723c-0.001,0.676,0.235,1.257,0.707,1.742c0.472,0.484,1.047,0.728,1.722,0.729
			c0.676,0.001,1.251-0.24,1.725-0.724c0.474-0.484,0.711-1.063,0.713-1.739c0-0.675-0.235-1.251-0.708-1.725
			C58.963,58.054,58.389,57.816,57.712,57.814"/>
		<path clip-path="url(#SVGID_10_)" fill="#FFFFFF" d="M78.862,41.795c-0.247-0.361-0.607-0.576-1.081-0.645l-0.098-0.01
			l-5.864-0.667l-7.234-0.82l-5.856-0.664l-1.287-0.146c0,0-0.815-0.093-0.899-0.907l-0.182-1.754
			c-0.044-0.315-0.162-0.597-0.354-0.845c-0.191-0.249-0.433-0.418-0.726-0.509l-4.661-1.495c-0.406-0.112-0.806-0.075-1.201,0.116
			c-0.394,0.192-0.66,0.501-0.796,0.929c-0.113,0.428-0.074,0.833,0.117,1.217c0.191,0.383,0.501,0.644,0.928,0.779l2.522,0.798
			c0,0,1.126,0.356,1.241,1.533l1.034,10.56c0,0,0.115,1.177-0.1,2.339l-0.637,3.432c-0.069,0.497,0.054,0.937,0.37,1.32
			c0.337,0.384,0.742,0.576,1.216,0.576l19.738,0.031c0.428,0.001,0.8-0.149,1.115-0.453c0.316-0.305,0.475-0.682,0.476-1.133
			c0-0.449-0.157-0.828-0.472-1.132c-0.315-0.306-0.686-0.459-1.114-0.46l-17.845-0.027l0.188-1.048c0,0,0.187-1.047,1.369-1.045
			l17.542,0.027c0.383,0.001,0.727-0.124,1.032-0.369c0.304-0.249,0.479-0.563,0.525-0.947l1.296-7.364
			C79.232,42.539,79.132,42.132,78.862,41.795"/>
	</g>
</g>
</svg>
